<mxfile host="app.diagrams.net" agent="Mozilla/5.0 (Windows NT 10.0; Win64; x64) AppleWebKit/537.36 (KHTML, like Gecko) Chrome/131.0.0.0 Safari/537.36" version="25.0.3">
  <diagram name="Page-1" id="vKZ-V5K5pDfOQ2ss4dRj">
    <mxGraphModel dx="794" dy="418" grid="1" gridSize="10" guides="1" tooltips="1" connect="1" arrows="1" fold="1" page="1" pageScale="1" pageWidth="850" pageHeight="1100" math="0" shadow="0">
      <root>
        <mxCell id="0" />
        <mxCell id="1" parent="0" />
        <mxCell id="f3LMZ3NK-MsZDFltU_R9-1" value="" style="rounded=1;whiteSpace=wrap;html=1;fillColor=#f8cecc;strokeColor=#b85450;" vertex="1" parent="1">
          <mxGeometry x="20" y="120" width="140" height="240" as="geometry" />
        </mxCell>
        <mxCell id="f3LMZ3NK-MsZDFltU_R9-2" value="" style="whiteSpace=wrap;html=1;shape=mxgraph.basic.document;" vertex="1" parent="1">
          <mxGeometry x="60" y="150" width="50" height="70" as="geometry" />
        </mxCell>
        <mxCell id="f3LMZ3NK-MsZDFltU_R9-3" value="" style="shape=datastore;whiteSpace=wrap;html=1;" vertex="1" parent="1">
          <mxGeometry x="55" y="260" width="60" height="80" as="geometry" />
        </mxCell>
        <mxCell id="f3LMZ3NK-MsZDFltU_R9-4" value="&lt;font style=&quot;font-size: 13px;&quot;&gt;&lt;b&gt;PDF&lt;/b&gt;&lt;/font&gt;" style="text;html=1;align=center;verticalAlign=middle;whiteSpace=wrap;rounded=0;" vertex="1" parent="1">
          <mxGeometry x="55" y="180" width="60" height="30" as="geometry" />
        </mxCell>
        <mxCell id="f3LMZ3NK-MsZDFltU_R9-5" value="&lt;font style=&quot;font-size: 14px;&quot;&gt;&lt;b&gt;Data Store&lt;/b&gt;&lt;/font&gt;" style="text;html=1;align=center;verticalAlign=middle;whiteSpace=wrap;rounded=0;" vertex="1" parent="1">
          <mxGeometry x="50" y="300" width="65" height="30" as="geometry" />
        </mxCell>
        <mxCell id="f3LMZ3NK-MsZDFltU_R9-6" value="" style="shape=curlyBracket;whiteSpace=wrap;html=1;rounded=1;flipH=1;labelPosition=right;verticalLabelPosition=middle;align=left;verticalAlign=middle;" vertex="1" parent="1">
          <mxGeometry x="130" y="170" width="20" height="140" as="geometry" />
        </mxCell>
        <mxCell id="f3LMZ3NK-MsZDFltU_R9-7" value="" style="rounded=1;whiteSpace=wrap;html=1;fillColor=#e1d5e7;strokeColor=#9673a6;" vertex="1" parent="1">
          <mxGeometry x="280" y="120" width="80" height="240" as="geometry" />
        </mxCell>
        <mxCell id="f3LMZ3NK-MsZDFltU_R9-8" value="" style="verticalLabelPosition=bottom;verticalAlign=top;html=1;shape=mxgraph.basic.layered_rect;dx=10;outlineConnect=0;whiteSpace=wrap;" vertex="1" parent="1">
          <mxGeometry x="285" y="200" width="70" height="50" as="geometry" />
        </mxCell>
        <mxCell id="f3LMZ3NK-MsZDFltU_R9-9" value="&lt;font style=&quot;font-size: 14px;&quot;&gt;&lt;b&gt;Splits&lt;/b&gt;&lt;/font&gt;" style="text;html=1;align=center;verticalAlign=middle;whiteSpace=wrap;rounded=0;" vertex="1" parent="1">
          <mxGeometry x="285" y="210" width="60" height="30" as="geometry" />
        </mxCell>
        <mxCell id="f3LMZ3NK-MsZDFltU_R9-10" value="" style="shape=singleArrow;whiteSpace=wrap;html=1;arrowWidth=0.3333333333333333;arrowSize=0.475;" vertex="1" parent="1">
          <mxGeometry x="190" y="220" width="60" height="40" as="geometry" />
        </mxCell>
        <mxCell id="f3LMZ3NK-MsZDFltU_R9-11" value="" style="rounded=1;whiteSpace=wrap;html=1;fillColor=#dae8fc;strokeColor=#6c8ebf;" vertex="1" parent="1">
          <mxGeometry x="480" y="120" width="120" height="240" as="geometry" />
        </mxCell>
        <mxCell id="f3LMZ3NK-MsZDFltU_R9-12" value="" style="shape=singleArrow;whiteSpace=wrap;html=1;arrowWidth=0.3333333333333333;arrowSize=0.475;" vertex="1" parent="1">
          <mxGeometry x="380" y="220" width="60" height="40" as="geometry" />
        </mxCell>
      </root>
    </mxGraphModel>
  </diagram>
</mxfile>
